<svg width="20" height="20" viewBox="0 0 20 20" fill="none" xmlns="http://www.w3.org/2000/svg">
<path d="M14.45 4.55008C14.2522 4.55008 14.0589 4.60873 13.8944 4.71861C13.73 4.82849 13.6018 4.98467 13.5261 5.1674C13.4504 5.35012 13.4306 5.55119 13.4692 5.74517C13.5078 5.93915 13.603 6.11734 13.7429 6.25719C13.8828 6.39704 14.0609 6.49228 14.2549 6.53087C14.4489 6.56945 14.65 6.54965 14.8327 6.47396C15.0154 6.39827 15.1716 6.2701 15.2815 6.10565C15.3914 5.9412 15.45 5.74786 15.45 5.55008C15.45 5.28486 15.3446 5.03051 15.1571 4.84297C14.9696 4.65544 14.7152 4.55008 14.45 4.55008ZM18.2833 6.56675C18.2671 5.87533 18.1376 5.19125 17.9 4.54175C17.6881 3.98603 17.3583 3.48281 16.9333 3.06675C16.5207 2.6396 16.0163 2.3119 15.4583 2.10841C14.8106 1.86355 14.1257 1.73109 13.4333 1.71675C12.55 1.66675 12.2667 1.66675 10 1.66675C7.73334 1.66675 7.45001 1.66675 6.56667 1.71675C5.8743 1.73109 5.18946 1.86355 4.54167 2.10841C3.98474 2.31396 3.48078 2.64138 3.06667 3.06675C2.63953 3.4794 2.31182 3.98378 2.10834 4.54175C1.86347 5.18953 1.73101 5.87438 1.71667 6.56675C1.66667 7.45008 1.66667 7.73342 1.66667 10.0001C1.66667 12.2667 1.66667 12.5501 1.71667 13.4334C1.73101 14.1258 1.86347 14.8106 2.10834 15.4584C2.31182 16.0164 2.63953 16.5208 3.06667 16.9334C3.48078 17.3588 3.98474 17.6862 4.54167 17.8917C5.18946 18.1366 5.8743 18.2691 6.56667 18.2834C7.45001 18.3334 7.73334 18.3334 10 18.3334C12.2667 18.3334 12.55 18.3334 13.4333 18.2834C14.1257 18.2691 14.8106 18.1366 15.4583 17.8917C16.0163 17.6883 16.5207 17.3606 16.9333 16.9334C17.3602 16.5189 17.6903 16.0152 17.9 15.4584C18.1376 14.8089 18.2671 14.1248 18.2833 13.4334C18.2833 12.5501 18.3333 12.2667 18.3333 10.0001C18.3333 7.73342 18.3333 7.45008 18.2833 6.56675ZM16.7833 13.3334C16.7773 13.8624 16.6815 14.3865 16.5 14.8834C16.367 15.2461 16.1532 15.5738 15.875 15.8417C15.6047 16.1172 15.2777 16.3304 14.9167 16.4667C14.4198 16.6482 13.8956 16.744 13.3667 16.7501C12.5333 16.7917 12.225 16.8001 10.0333 16.8001C7.84167 16.8001 7.53334 16.8001 6.70001 16.7501C6.15075 16.7604 5.60383 16.6758 5.08334 16.5001C4.73816 16.3568 4.42614 16.1441 4.16667 15.8751C3.89008 15.6074 3.67904 15.2794 3.55001 14.9167C3.34655 14.4127 3.23371 13.8767 3.21667 13.3334C3.21667 12.5001 3.16667 12.1917 3.16667 10.0001C3.16667 7.80841 3.16667 7.50008 3.21667 6.66675C3.22041 6.12596 3.31913 5.59004 3.50834 5.08341C3.65504 4.73167 3.88023 4.41813 4.16667 4.16675C4.41985 3.88022 4.73274 3.65266 5.08334 3.50008C5.5913 3.31678 6.12667 3.22098 6.66667 3.21675C7.50001 3.21675 7.80834 3.16675 10 3.16675C12.1917 3.16675 12.5 3.16675 13.3333 3.21675C13.8623 3.22282 14.3864 3.31862 14.8833 3.50008C15.262 3.64062 15.6019 3.86912 15.875 4.16675C16.1481 4.42273 16.3615 4.73569 16.5 5.08341C16.6852 5.59086 16.7811 6.12656 16.7833 6.66675C16.825 7.50008 16.8333 7.80841 16.8333 10.0001C16.8333 12.1917 16.825 12.5001 16.7833 13.3334ZM10 5.72508C9.15485 5.72673 8.32914 5.97885 7.62722 6.4496C6.92529 6.92034 6.37865 7.58858 6.05637 8.36988C5.73408 9.15117 5.65061 10.0105 5.8165 10.8392C5.98239 11.6679 6.3902 12.4289 6.9884 13.0259C7.5866 13.6229 8.34835 14.0293 9.17739 14.1935C10.0064 14.3578 10.8656 14.2727 11.6462 13.9489C12.4269 13.6251 13.0941 13.0771 13.5634 12.3743C14.0328 11.6714 14.2833 10.8452 14.2833 10.0001C14.2844 9.43767 14.1743 8.88059 13.9594 8.36088C13.7444 7.84117 13.4288 7.36909 13.0307 6.97179C12.6327 6.57449 12.16 6.25981 11.6398 6.04586C11.1197 5.8319 10.5624 5.72288 10 5.72508ZM10 12.7751C9.45116 12.7751 8.91464 12.6123 8.4583 12.3074C8.00195 12.0025 7.64627 11.5691 7.43624 11.062C7.22621 10.555 7.17125 9.997 7.27833 9.45871C7.3854 8.92041 7.64969 8.42595 8.03778 8.03786C8.42587 7.64977 8.92033 7.38548 9.45863 7.2784C9.99693 7.17133 10.5549 7.22628 11.062 7.43632C11.569 7.64635 12.0024 8.00203 12.3073 8.45837C12.6123 8.91472 12.775 9.45124 12.775 10.0001C12.775 10.3645 12.7032 10.7253 12.5638 11.062C12.4243 11.3987 12.2199 11.7046 11.9622 11.9623C11.7045 12.22 11.3986 12.4244 11.062 12.5638C10.7253 12.7033 10.3644 12.7751 10 12.7751Z" fill="#E7E7E7"/>
</svg>
