<svg width="80" height="80" viewBox="0 0 80 80" fill="none" xmlns="http://www.w3.org/2000/svg">
<g clip-path="url(#clip0_21:30)">
<path d="M76.1378 67.3168C72.2898 78.2838 57.9932 76.2934 48.7439 75.3336C46.5955 75.092 44.4983 74.8523 42.2663 74.7832C40.5545 74.7087 40.4744 77.3837 42.1712 77.432C53.9115 78.097 78.2164 86.3331 78.7878 67.5735C78.7048 66.1338 76.5134 65.9093 76.1378 67.3168Z" fill="#9C7057" fill-opacity="0.7"/>
<path d="M74.898 4.32357C69.7897 0.332433 62.7914 1.13566 56.7133 0.828651C46.9939 0.795308 37.063 0.698581 27.3836 0.00591965C26.5261 -0.0488138 25.8895 0.265904 25.4761 0.753629C-3.52479 -3.85184 0.934566 15.6609 2.69878 36.3318C2.76263 37.7926 4.99679 38.0057 5.33809 36.5776C5.94566 34.3524 6.22216 32.0709 6.36733 29.8059C6.70595 11.7659 0.17176 0.775333 25.1195 3.39719C25.4363 4.12587 26.1123 4.6905 27.163 4.71913C38.8983 5.10887 50.8115 4.51813 62.5448 4.54219C65.2563 4.6817 68.5075 4.66204 71.0596 5.80593C61.8807 15.0793 53.0323 24.7816 44.5146 34.67C44.2386 29.212 45.2071 25.0922 45.4706 20.143C45.3734 17.0471 40.6776 17.1851 40.7451 20.2683C40.6717 41.3937 39.6394 42.9426 61.2112 37.5331C63.6768 37.0817 62.6327 33.3507 60.2991 34.2245C55.6774 35.6578 50.2384 38.0667 45.4673 36.797C54.8544 27.5055 64.6295 17.8592 74.4464 9.07657C76.9856 14.9884 76.2382 21.8361 76.4577 28.1583C76.3942 36.0122 76.1649 43.8612 75.7857 51.7114C75.6874 54.0333 79.2608 54.0923 79.2183 51.7512C77.568 38.8074 83.4325 14.0076 74.898 4.32357Z" fill="#9C7057" fill-opacity="0.7"/>
<path d="M26.6851 44.6621C23.1953 40.4639 17.9927 45.3119 21.4055 49.364C24.8984 52.8078 29.2382 48.5452 26.6851 44.6621Z" fill="#9C7057" fill-opacity="0.7"/>
<path d="M8.95506 47.8285C11.0867 52.0678 17.6905 50.0019 15.985 45.1327C14.1885 40.1011 6.68896 42.7282 8.95506 47.8285Z" fill="#9C7057" fill-opacity="0.7"/>
<path d="M20.1908 75.8698C19.8431 81.2518 28.5973 81.2565 27.9773 75.7356C27.7384 71.0624 20.2928 71.1663 20.1908 75.8698Z" fill="#9C7057" fill-opacity="0.7"/>
<path d="M8.38915 78.7845C12.3191 82.4639 17.5908 76.9913 14.3976 72.9753C10.4755 69.0669 4.91845 74.735 8.38915 78.7845Z" fill="#9C7057" fill-opacity="0.7"/>
<path d="M7.94956 52.4678C5.88794 48.0724 -1.55251 50.5515 0.777908 55.4279C3.01097 59.2091 9.82937 57.1572 7.94956 52.4678Z" fill="#9C7057" fill-opacity="0.7"/>
<path d="M0.605523 65.8127C-0.0464023 71.353 8.08765 71.0746 8.2108 65.9643C8.39812 60.819 0.974817 60.9793 0.605523 65.8127Z" fill="#9C7057" fill-opacity="0.7"/>
<path d="M30.512 51.8281C28.3455 52.6919 27.7478 55.7914 29.2586 57.5039C31.9269 60.2314 37.0509 57.37 35.4987 53.6112C34.7781 51.6256 32.2987 51.0476 30.512 51.8281Z" fill="#9C7057" fill-opacity="0.7"/>
<path d="M28.0577 66.9601C28.7892 72.4669 37.4267 70.6522 35.0992 65.1915C33.5275 61.5154 27.501 62.7653 28.0577 66.9601Z" fill="#9C7057" fill-opacity="0.7"/>
</g>
<defs>
<clipPath id="clip0_21:30">
<rect width="80" height="80" fill="white"/>
</clipPath>
</defs>
</svg>
