<svg width="162" height="70" viewBox="0 0 162 70" fill="none" xmlns="http://www.w3.org/2000/svg">
<path d="M30.8071 24.5156L38.9443 6.89844H47.7529L34.916 31.8203V46H26.7251V31.8203L13.8882 6.89844H22.7236L30.8071 24.5156ZM69.3716 37.9434H55.2456L52.5601 46H43.9932L58.5488 6.89844H66.0146L80.6509 46H72.084L69.3716 37.9434ZM57.4209 31.4175H67.1963L62.2817 16.7812L57.4209 31.4175ZM92.3599 39.5278H109.467V46H84.3032V6.89844H92.3599V39.5278ZM136.725 37.9434H122.599L119.914 46H111.347L125.902 6.89844H133.368L148.004 46H139.438L136.725 37.9434ZM124.774 31.4175H134.55L129.635 16.7812L124.774 31.4175Z" fill="#9C7057" fill-opacity="0.7"/>
<line x1="14" y1="66" x2="150" y2="66" stroke="#9C7057" stroke-opacity="0.7" stroke-width="8"/>
</svg>
