<svg width="20" height="20" viewBox="0 0 20 20" fill="none" xmlns="http://www.w3.org/2000/svg">
<path d="M18.3333 4.83326C17.707 5.10501 17.0445 5.28465 16.3667 5.3666C17.0818 4.93936 17.6177 4.26725 17.875 3.47493C17.203 3.87498 16.4673 4.15684 15.7 4.30826C15.1871 3.75207 14.5041 3.38184 13.7582 3.25564C13.0122 3.12944 12.2455 3.2544 11.5782 3.61092C10.9109 3.96745 10.3808 4.53537 10.071 5.22563C9.7613 5.91588 9.68941 6.68942 9.86667 7.42493C8.50786 7.3562 7.17871 7.00239 5.96555 6.38648C4.7524 5.77057 3.68238 4.90634 2.82501 3.84993C2.52429 4.37507 2.36627 4.96978 2.36667 5.57493C2.36561 6.13692 2.50352 6.69044 2.76813 7.18623C3.03275 7.68202 3.41585 8.10469 3.88334 8.4166C3.33999 8.40181 2.80824 8.25601 2.33334 7.9916V8.03326C2.33741 8.82067 2.61333 9.58251 3.11443 10.1899C3.61553 10.7973 4.31105 11.213 5.08334 11.3666C4.78605 11.4571 4.4774 11.5048 4.16667 11.5083C3.95158 11.5058 3.73702 11.4862 3.52501 11.4499C3.74493 12.1273 4.17052 12.7192 4.74257 13.1434C5.31461 13.5676 6.00465 13.8029 6.71667 13.8166C5.51434 14.7627 4.02991 15.279 2.50001 15.2833C2.22145 15.2842 1.94312 15.2675 1.66667 15.2333C3.2287 16.2418 5.04902 16.7772 6.90834 16.7749C8.19142 16.7883 9.46429 16.5458 10.6526 16.0617C11.8409 15.5775 12.9209 14.8615 13.8293 13.9553C14.7378 13.0492 15.4566 11.9711 15.9438 10.784C16.431 9.59695 16.6767 8.3247 16.6667 7.0416C16.6667 6.89993 16.6667 6.74993 16.6667 6.59993C17.3206 6.11227 17.8846 5.51445 18.3333 4.83326Z" fill="#E7E7E7"/>
</svg>
